<?xml version="1.0" standalone="no"?>
<!DOCTYPE svg PUBLIC "-//W3C//DTD SVG 20010904//EN"
 "http://www.w3.org/TR/2001/REC-SVG-20010904/DTD/svg10.dtd">
<svg version="1.0" xmlns="http://www.w3.org/2000/svg"
 width="400.000000pt" height="400.000000pt" viewBox="0 0 400.000000 400.000000"
 preserveAspectRatio="xMidYMid meet">
<metadata>
Created by potrace 1.14, written by Peter Selinger 2001-2017
</metadata>
<g transform="translate(0.000000,400.000000) scale(0.100000,-0.100000)"
fill="#000000" stroke="none">
<path d="M1720 3990 c-19 -5 -83 -7 -142 -4 -65 2 -109 0 -113 -6 -4 -6 -28
-8 -59 -4 -48 6 -55 4 -70 -17 -9 -13 -16 -31 -16 -40 0 -13 -11 -16 -58 -16
-54 1 -66 -3 -136 -49 -106 -67 -122 -75 -181 -89 -48 -11 -49 -12 -20 -19 17
-4 43 -10 60 -14 l30 -8 -47 -32 c-26 -18 -92 -71 -145 -119 -125 -109 -168
-136 -212 -135 -25 1 -31 -2 -24 -9 16 -16 102 -18 146 -4 29 10 35 10 28 1
-19 -23 -61 -146 -66 -194 -13 -126 -20 -152 -50 -219 -31 -68 -34 -88 -8 -62
19 19 22 -4 12 -81 -5 -41 -10 -88 -11 -105 0 -16 -7 -43 -15 -59 -28 -54 10
-23 42 35 l30 54 6 -70 c6 -75 25 -147 46 -181 7 -12 11 -30 7 -40 -5 -16 -4
-16 5 -4 6 9 11 10 11 3 0 -6 16 -33 36 -58 19 -26 37 -57 38 -69 5 -40 48
-111 94 -155 53 -50 72 -82 72 -122 0 -43 16 -35 24 10 6 40 6 40 37 29 22 -7
27 -14 20 -21 -25 -25 4 -77 42 -77 26 0 47 38 37 66 -13 32 14 46 77 38 37
-5 57 -15 86 -42 20 -20 37 -43 38 -52 0 -11 2 -11 6 -2 3 8 -10 32 -28 54
-31 40 -32 41 -8 34 48 -15 77 -18 83 -7 4 6 0 11 -9 11 -9 0 -15 6 -12 13 2
6 10 11 16 9 7 -1 10 2 7 7 -3 5 1 14 9 21 24 20 8 29 -31 17 -32 -10 -38 -9
-50 8 -8 10 -14 24 -14 29 0 17 81 11 118 -8 25 -13 32 -14 32 -3 0 8 -11 20
-25 27 -34 18 -31 26 12 33 31 5 41 2 70 -23 19 -17 37 -30 41 -30 4 1 -2 9
-13 18 -11 10 -29 28 -40 41 -28 33 0 22 43 -16 20 -18 39 -33 44 -33 4 0 5
-7 2 -15 -4 -10 0 -15 11 -15 9 0 13 -4 10 -10 -3 -5 -2 -10 4 -10 19 0 21 19
4 29 -10 6 -13 11 -8 11 6 0 16 -5 22 -11 7 -7 22 -9 40 -4 15 4 22 10 16 12
-24 9 -13 23 20 24 17 1 24 3 15 6 -10 2 -18 11 -18 19 0 18 3 18 50 -6 51
-26 177 -36 177 -15 0 9 -10 15 -23 15 -33 0 -81 23 -77 38 3 6 -2 12 -11 12
-34 0 -54 34 -49 86 3 33 0 63 -11 88 -37 90 -6 81 41 -11 17 -34 43 -68 67
-85 35 -25 47 -28 124 -28 83 0 84 0 62 18 -34 27 -18 43 38 36 31 -4 42 -2
34 4 -11 7 -9 10 7 15 12 3 19 2 16 -3 -6 -9 105 -60 133 -60 11 0 26 7 33 16
14 18 59 37 67 30 2 -3 -8 -26 -22 -51 -18 -30 -23 -45 -14 -45 25 0 58 31 83
78 13 26 24 41 25 34 0 -7 -7 -23 -16 -36 -8 -14 -11 -27 -6 -30 9 -5 63 30
70 46 2 5 8 6 13 2 5 -3 8 -2 7 3 -1 4 12 29 29 56 26 40 32 45 43 32 7 -8 18
-15 25 -15 8 0 16 -6 19 -12 4 -7 3 -2 0 12 -10 37 -8 91 4 122 11 27 12 27
41 11 22 -13 36 -15 57 -8 38 14 40 31 6 38 -39 8 -53 47 -43 121 4 31 10 58
12 60 8 8 115 10 127 2 16 -9 32 1 32 20 0 10 -8 15 -22 13 -40 -5 -65 10 -82
49 -16 36 -16 39 3 82 24 52 27 146 7 202 -7 20 -33 65 -58 100 -25 35 -55 82
-66 104 -12 23 -33 56 -48 74 -22 26 -25 33 -13 41 8 5 18 9 23 9 14 0 76 43
76 53 0 4 -21 7 -47 7 -76 0 -138 36 -218 124 -112 126 -212 192 -349 231 -44
13 -84 16 -165 13 -58 -3 -114 -8 -123 -12 -13 -6 -15 -3 -11 13 5 18 1 21
-28 20 -19 -1 -50 -5 -69 -9z m1069 -808 c20 -60 21 -75 11 -112 -6 -23 -13
-40 -15 -39 -2 2 -8 45 -14 94 -6 50 -14 101 -18 114 -4 15 -2 22 4 18 6 -4
20 -37 32 -75z m-881 -520 c15 -31 10 -37 -16 -21 -17 10 -72 107 -72 126 0
10 73 -78 88 -105z m307 -65 l30 -18 -35 3 c-22 2 -34 8 -32 16 1 6 -4 12 -12
12 -7 0 -19 7 -26 16 -12 13 -10 14 16 2 16 -7 43 -21 59 -31z m-244 -14 l34
-36 -31 21 c-36 24 -61 52 -47 52 5 0 25 -16 44 -37z m348 -22 c8 -5 11 -16 6
-30 -5 -18 -9 -20 -21 -10 -15 12 -20 49 -6 49 4 0 13 -4 21 -9z m108 -58 c-3
-26 -9 -49 -16 -51 -17 -6 -121 28 -121 39 0 6 7 8 16 5 10 -4 21 4 32 24 14
25 23 30 55 30 l38 0 -4 -47z m-452 7 c10 -11 14 -20 9 -20 -5 0 -15 9 -22 20
-7 11 -11 20 -9 20 2 0 12 -9 22 -20z m-387 -47 c16 -27 44 -61 61 -77 17 -17
31 -39 31 -50 -1 -33 -95 73 -113 128 -9 26 -15 46 -13 46 1 0 17 -21 34 -47z
m528 16 c4 -8 -1 -9 -17 -4 -21 7 -22 6 -10 -9 16 -19 8 -21 -22 -4 -21 11
-21 11 -2 19 29 11 43 10 51 -2z m-89 -24 c0 -11 -4 -12 -14 -4 -7 6 -13 13
-13 15 0 2 6 4 13 4 8 0 14 -7 14 -15z m-570 -121 c-1 -1 -16 -4 -33 -7 -29
-6 -33 -3 -57 41 -50 94 -44 102 26 32 36 -36 65 -65 64 -66z m668 116 c3 -5
1 -10 -4 -10 -6 0 -11 5 -11 10 0 6 2 10 4 10 3 0 8 -4 11 -10z m210 -32 c6
-6 -4 -8 -29 -5 -21 3 -43 10 -49 16 -13 13 64 3 78 -11z m-990 -116 c-9 -9
-45 26 -45 43 0 17 3 16 24 -10 13 -16 23 -31 21 -33z m325 -13 c0 -15 -16
-11 -32 9 -31 35 -31 45 0 23 18 -12 32 -27 32 -32z m-575 -76 c17 -3 38 -14
48 -24 17 -18 17 -19 -2 -19 -29 0 -63 15 -91 41 -21 18 -22 21 -5 15 11 -4
34 -10 50 -13z"/>
<path d="M3375 3170 c-3 -5 -1 -10 4 -10 6 0 11 5 11 10 0 6 -2 10 -4 10 -3 0
-8 -4 -11 -10z"/>
<path d="M3762 3171 c2 -7 7 -12 11 -12 12 1 9 15 -3 20 -7 2 -11 -2 -8 -8z"/>
<path d="M3960 3165 c0 -9 5 -15 11 -13 6 2 11 8 11 13 0 5 -5 11 -11 13 -6 2
-11 -4 -11 -13z"/>
<path d="M3866 3083 c-12 -12 -6 -33 9 -33 8 0 15 6 15 14 0 17 -14 28 -24 19z"/>
<path d="M3075 3070 c-3 -5 1 -10 9 -10 9 0 16 5 16 10 0 6 -4 10 -9 10 -6 0
-13 -4 -16 -10z"/>
<path d="M3270 3070 c0 -5 7 -10 15 -10 8 0 15 5 15 10 0 6 -7 10 -15 10 -8 0
-15 -4 -15 -10z"/>
<path d="M3465 3071 c-7 -12 12 -24 25 -16 11 7 4 25 -10 25 -5 0 -11 -4 -15
-9z"/>
<path d="M3662 3069 c2 -6 8 -10 13 -10 5 0 11 4 13 10 2 6 -4 11 -13 11 -9 0
-15 -5 -13 -11z"/>
<path d="M2985 2980 c-4 -6 -3 -16 3 -22 6 -6 12 -6 17 2 4 6 3 16 -3 22 -6 6
-12 6 -17 -2z"/>
<path d="M3174 2979 c-8 -14 11 -33 25 -25 11 7 4 36 -9 36 -5 0 -12 -5 -16
-11z"/>
<path d="M3362 2973 c2 -10 10 -18 18 -18 8 0 16 8 18 18 2 12 -3 17 -18 17
-15 0 -20 -5 -18 -17z"/>
<path d="M3564 2979 c-10 -17 13 -36 27 -22 12 12 4 33 -11 33 -5 0 -12 -5
-16 -11z"/>
<path d="M3755 2981 c-8 -15 3 -31 21 -31 9 0 14 7 12 17 -4 20 -24 28 -33 14z"/>
<path d="M3953 2975 c-3 -9 -3 -18 0 -22 10 -10 37 6 37 22 0 20 -29 20 -37 0z"/>
<path d="M430 2970 c0 -5 5 -10 10 -10 6 0 10 5 10 10 0 6 -4 10 -10 10 -5 0
-10 -4 -10 -10z"/>
<path d="M146 2881 c-4 -7 -5 -15 -2 -18 9 -9 19 4 14 18 -4 11 -6 11 -12 0z"/>
<path d="M336 2883 c-11 -11 -6 -23 9 -23 8 0 15 4 15 9 0 13 -16 22 -24 14z"/>
<path d="M3072 2873 c2 -10 10 -18 18 -18 22 0 18 29 -3 33 -14 3 -18 -1 -15
-15z"/>
<path d="M3270 2870 c0 -11 7 -20 15 -20 8 0 15 9 15 20 0 11 -7 20 -15 20 -8
0 -15 -9 -15 -20z"/>
<path d="M3462 2873 c5 -26 38 -29 38 -4 0 15 -6 21 -21 21 -14 0 -19 -5 -17
-17z"/>
<path d="M3656 2881 c-3 -5 0 -14 8 -20 10 -8 16 -8 25 2 6 8 8 17 4 20 -9 10
-31 9 -37 -2z"/>
<path d="M3855 2880 c-8 -13 3 -30 20 -30 14 0 27 24 18 34 -10 9 -31 7 -38
-4z"/>
<path d="M2973 2784 c-8 -21 13 -42 28 -27 13 13 5 43 -11 43 -6 0 -13 -7 -17
-16z"/>
<path d="M3171 2791 c-19 -12 -6 -43 16 -39 10 2 18 12 18 22 0 22 -14 29 -34
17z"/>
<path d="M3364 2785 c-7 -18 3 -35 21 -35 18 0 26 25 12 39 -15 15 -27 14 -33
-4z"/>
<path d="M3557 2787 c-3 -8 -2 -20 3 -27 11 -18 42 -4 38 17 -4 22 -34 29 -41
10z"/>
<path d="M3754 2785 c-4 -9 -2 -21 4 -27 15 -15 44 -1 40 19 -4 23 -36 29 -44
8z"/>
<path d="M3948 2788 c-8 -21 2 -38 24 -38 14 0 19 6 16 22 -3 25 -33 36 -40
16z"/>
<path d="M30 2770 c0 -15 5 -20 18 -18 9 2 17 10 17 18 0 8 -8 16 -17 18 -13
2 -18 -3 -18 -18z"/>
<path d="M230 2770 c0 -11 7 -20 15 -20 8 0 15 9 15 20 0 11 -7 20 -15 20 -8
0 -15 -9 -15 -20z"/>
<path d="M422 2773 c2 -10 10 -18 18 -18 8 0 16 8 18 18 2 12 -3 17 -18 17
-15 0 -20 -5 -18 -17z"/>
<path d="M127 2693 c-24 -23 12 -55 38 -33 12 10 13 16 4 26 -12 15 -31 18
-42 7z"/>
<path d="M320 2675 c0 -22 4 -26 23 -23 14 2 22 10 22 23 0 13 -8 21 -22 23
-19 3 -23 -1 -23 -23z"/>
<path d="M514 2685 c-4 -9 -2 -21 4 -27 16 -16 47 -5 47 17 0 26 -42 34 -51
10z"/>
<path d="M2877 2693 c-4 -3 -7 -15 -7 -25 0 -23 38 -25 47 -2 8 21 -24 43 -40
27z"/>
<path d="M3063 2684 c-3 -8 -1 -20 5 -26 16 -16 42 -2 42 22 0 24 -38 28 -47
4z"/>
<path d="M3264 2685 c-4 -9 -2 -21 4 -27 15 -15 44 -1 40 19 -4 23 -36 29 -44
8z"/>
<path d="M3458 2688 c-8 -21 2 -38 23 -38 14 0 19 7 19 25 0 18 -5 25 -19 25
-10 0 -21 -6 -23 -12z"/>
<path d="M3653 2684 c-3 -8 -1 -20 5 -26 16 -16 42 -2 42 22 0 24 -38 28 -47
4z"/>
<path d="M3847 2686 c-7 -19 18 -40 39 -32 8 3 14 14 12 23 -4 22 -43 29 -51
9z"/>
<path d="M32 2601 c-23 -14 -10 -46 18 -46 16 0 26 6 28 19 3 16 -12 36 -28
36 -3 0 -11 -4 -18 -9z"/>
<path d="M224 2595 c-9 -23 3 -45 25 -45 23 0 35 28 20 46 -15 18 -38 18 -45
-1z"/>
<path d="M422 2598 c-16 -16 -15 -33 3 -48 20 -17 47 5 43 34 -4 24 -28 32
-46 14z"/>
<path d="M2772 2598 c-16 -16 -15 -23 4 -43 12 -12 19 -13 30 -4 19 15 18 45
-2 53 -20 8 -18 8 -32 -6z"/>
<path d="M2964 2595 c-9 -23 3 -45 26 -45 25 0 37 25 20 45 -16 19 -39 19 -46
0z"/>
<path d="M3162 2593 c-13 -26 -4 -43 24 -43 22 0 25 4 22 27 -4 33 -32 43 -46
16z"/>
<path d="M3355 2590 c-8 -25 1 -40 25 -40 10 0 22 5 25 10 11 17 -6 50 -25 50
-10 0 -21 -9 -25 -20z"/>
<path d="M3550 2595 c-15 -19 3 -45 31 -45 23 0 32 15 24 40 -7 24 -37 26 -55
5z"/>
<path d="M3757 2603 c-4 -3 -7 -17 -7 -30 0 -18 6 -23 24 -23 13 0 27 7 30 16
11 28 -27 57 -47 37z"/>
<path d="M3941 2592 c-8 -15 -7 -23 4 -32 23 -19 50 -8 50 20 0 32 -39 41 -54
12z"/>
<path d="M610 2583 c0 -23 15 -39 23 -26 3 5 -1 17 -9 28 -14 18 -14 18 -14
-2z"/>
<path d="M121 2497 c-24 -29 17 -70 46 -46 8 7 13 22 11 33 -4 25 -40 33 -57
13z"/>
<path d="M313 2494 c-7 -18 6 -45 24 -51 16 -6 44 27 41 46 -4 23 -56 27 -65
5z"/>
<path d="M506 2494 c-10 -25 -7 -33 16 -45 18 -10 24 -8 40 11 14 17 16 26 7
36 -16 19 -55 18 -63 -2z"/>
<path d="M2863 2494 c-6 -17 6 -46 23 -51 5 -1 18 4 29 13 15 11 17 18 9 32
-15 24 -52 28 -61 6z"/>
<path d="M3062 2498 c-17 -17 -15 -31 9 -46 26 -17 51 1 47 32 -3 24 -37 33
-56 14z"/>
<path d="M3262 2498 c-30 -30 8 -68 43 -42 15 12 17 18 9 32 -14 22 -36 26
-52 10z"/>
<path d="M3451 2497 c-22 -27 10 -64 45 -50 23 9 14 57 -12 61 -11 2 -26 -3
-33 -11z"/>
<path d="M3645 2489 c-10 -30 19 -53 47 -38 29 15 20 53 -14 57 -20 2 -28 -2
-33 -19z"/>
<path d="M3843 2494 c-7 -18 6 -45 24 -51 18 -6 42 25 36 47 -7 25 -51 27 -60
4z"/>
<path d="M2671 2468 c0 -9 -4 -25 -7 -35 -5 -17 -5 -17 6 0 6 10 9 25 7 35 -4
15 -5 15 -6 0z"/>
<path d="M20 2405 c-15 -19 -4 -52 21 -60 38 -12 65 35 37 63 -16 16 -43 15
-58 -3z"/>
<path d="M222 2408 c-28 -28 -6 -68 34 -60 18 3 24 11 24 32 0 36 -34 52 -58
28z"/>
<path d="M410 2401 c-20 -38 13 -71 51 -51 21 12 25 40 7 58 -18 18 -46 14
-58 -7z"/>
<path d="M610 2405 c-20 -24 -8 -50 26 -53 36 -4 50 18 34 49 -13 23 -43 25
-60 4z"/>
<path d="M2760 2401 c-13 -25 -4 -48 21 -56 38 -12 65 35 37 63 -18 18 -46 14
-58 -7z"/>
<path d="M2960 2405 c-20 -24 -8 -50 26 -53 25 -2 33 1 37 18 10 38 -38 65
-63 35z"/>
<path d="M3162 2411 c-8 -4 -12 -19 -10 -32 2 -19 9 -24 33 -24 33 0 45 25 25
50 -14 17 -29 19 -48 6z"/>
<path d="M3354 2406 c-12 -31 0 -51 31 -51 27 0 30 3 30 30 0 25 -4 30 -28 33
-17 2 -29 -2 -33 -12z"/>
<path d="M3552 2408 c-25 -25 -6 -68 30 -68 26 0 45 44 28 65 -15 18 -41 20
-58 3z"/>
<path d="M3752 2411 c-8 -4 -12 -19 -10 -32 2 -19 9 -24 33 -24 27 0 30 3 30
30 0 22 -5 31 -20 33 -11 1 -26 -2 -33 -7z"/>
<path d="M3942 2408 c-18 -18 -15 -46 7 -58 31 -16 53 -2 49 34 -3 34 -33 47
-56 24z"/>
<path d="M2641 2379 c-14 -42 -7 -49 9 -9 7 17 10 33 8 36 -3 3 -11 -9 -17
-27z"/>
<path d="M2521 2324 c0 -11 3 -14 6 -6 3 7 2 16 -1 19 -3 4 -6 -2 -5 -13z"/>
<path d="M114 2304 c-16 -24 -16 -26 4 -46 18 -19 25 -20 47 -10 29 14 33 42
7 65 -26 23 -39 21 -58 -9z"/>
<path d="M315 2314 c-10 -10 -13 -24 -9 -38 14 -43 51 -46 71 -6 11 22 10 27
-8 43 -26 21 -33 21 -54 1z"/>
<path d="M516 2317 c-38 -27 2 -95 42 -71 24 16 28 55 6 71 -10 7 -21 13 -24
13 -3 0 -14 -6 -24 -13z"/>
<path d="M717 2319 c-21 -12 -22 -52 -2 -69 24 -20 55 -3 55 30 0 34 -26 53
-53 39z"/>
<path d="M2606 2287 c-21 -44 -47 -72 -110 -118 -22 -16 -56 -57 -77 -92 -38
-62 -38 -63 -39 -171 0 -95 2 -107 13 -91 10 12 16 14 21 7 15 -24 24 -11 21
28 -2 22 1 42 5 45 26 16 433 -387 480 -476 7 -11 12 -56 13 -98 0 -63 -5 -90
-33 -161 -18 -47 -47 -134 -65 -195 -32 -105 -34 -108 -36 -65 l-2 45 -4 -38
c-4 -38 -6 -39 -91 -79 -178 -82 -270 -118 -352 -138 -59 -14 -71 -18 -38 -15
26 2 50 0 53 -5 3 -6 14 -10 23 -9 14 0 13 2 -3 8 -19 8 -19 8 5 15 33 10 149
56 169 67 9 4 39 18 66 29 28 11 63 27 78 35 55 29 65 -10 14 -49 -40 -31 -45
-31 -64 -9 -13 16 -13 16 -4 -3 9 -18 7 -25 -14 -38 -14 -9 -25 -14 -25 -11 0
3 -13 -8 -30 -25 -39 -40 -38 -44 5 -19 29 17 38 19 50 9 13 -11 14 -10 9 4
-5 13 1 16 27 17 19 0 28 3 21 6 -9 3 -4 10 14 19 15 8 29 12 32 10 7 -7 -18
-279 -27 -290 -4 -6 -8 -22 -9 -35 0 -13 -6 -27 -12 -31 -6 -4 -8 -14 -5 -22
4 -9 0 -18 -9 -21 -9 -4 -16 -3 -16 2 0 4 -6 8 -14 8 -8 0 -12 -6 -8 -15 3 -9
1 -13 -4 -10 -17 11 -7 -72 11 -92 9 -10 14 -23 11 -28 -3 -5 -8 -31 -11 -58
-3 -27 -10 -65 -15 -84 -6 -19 -10 -38 -10 -42 0 -5 238 -8 528 -8 l529 0 -12
62 c-21 110 -82 281 -161 456 -18 39 -32 72 -30 72 12 0 65 -33 69 -43 72
-173 121 -315 164 -472 l19 -70 137 -3 137 -3 -1 163 c0 90 -3 157 -6 151 -12
-31 -57 -7 -46 25 6 16 40 16 46 0 3 -7 6 27 6 75 1 80 -1 88 -16 83 -25 -8
-46 8 -41 30 2 13 12 19 31 19 27 -1 27 -1 27 73 0 67 -2 73 -19 67 -18 -5
-51 17 -51 34 0 16 30 33 50 28 19 -5 20 0 20 67 l0 73 -29 -5 c-23 -3 -30 1
-36 17 -9 29 13 54 42 48 22 -4 23 -2 23 63 0 65 -1 67 -23 63 -30 -6 -51 19
-43 52 5 20 13 25 36 25 30 0 30 1 30 55 0 52 -1 55 -24 55 -22 0 -56 31 -56
52 0 15 33 38 56 38 22 0 24 4 24 54 0 50 -1 53 -23 49 -34 -7 -63 30 -51 65
7 21 17 28 42 30 31 3 32 4 32 52 l0 49 -37 3 c-37 3 -38 4 -41 46 -3 44 1 47
66 45 8 -1 12 16 12 49 l0 49 -37 -3 c-38 -3 -38 -3 -41 -50 l-3 -48 -43 0
c-48 0 -56 9 -56 65 0 36 -13 44 -62 37 -24 -4 -28 -9 -28 -37 0 -56 -8 -65
-55 -65 -47 0 -55 9 -55 66 0 34 -1 34 -44 34 l-45 0 -3 -47 c-3 -42 -6 -48
-27 -51 -12 -2 -34 -1 -47 2 -21 6 -24 12 -24 50 0 48 -11 56 -65 46 -27 -4
-30 -10 -33 -45 -4 -44 -14 -55 -52 -55 -36 0 -50 18 -50 61 0 42 -14 52 -60
42 -28 -5 -30 -8 -30 -54 l0 -49 46 0 45 0 -3 -42 c-3 -43 -3 -43 -45 -46
l-42 -3 -3 43 c-3 43 -3 43 -48 48 l-45 5 -5 45 -5 45 -47 3 -48 3 0 -50 c0
-28 3 -50 8 -50 4 1 27 1 51 0 l43 -1 -4 -45 -3 -44 45 -3 c41 -3 45 -6 54
-37 8 -30 7 -36 -13 -52 -22 -18 -22 -20 -6 -36 17 -16 17 -16 11 4 -6 19 -3
21 31 21 66 1 74 -5 72 -52 -2 -23 1 -47 4 -53 4 -6 1 -13 -5 -16 -7 -2 -10
-8 -5 -13 4 -4 15 2 23 15 11 15 24 21 41 19 54 -6 57 -75 5 -94 -25 -9 -31
-8 -45 9 -9 12 -20 18 -23 14 -4 -4 5 -18 20 -31 20 -17 25 -26 16 -31 -7 -4
-16 -1 -22 6 -7 10 -8 8 -3 -8 3 -12 1 -24 -5 -28 -8 -5 -8 -11 1 -21 15 -18
4 -31 -14 -16 -10 9 -17 8 -26 -1 -9 -9 -14 -9 -21 2 -7 12 -11 13 -24 1 -22
-17 -30 -7 -32 43 -1 23 1 36 3 29 3 -6 9 -9 14 -6 6 3 5 12 -2 21 -10 12 -10
16 0 23 8 4 10 13 7 19 -11 16 3 51 20 51 8 0 14 -4 14 -10 0 -5 -8 -10 -17
-10 -14 0 -14 -3 -5 -12 10 -10 15 -10 22 2 9 13 11 13 19 0 6 -8 13 -11 18
-7 4 5 1 13 -7 18 -11 8 -12 12 -2 16 6 2 12 9 12 15 0 6 -7 5 -16 -3 -13 -10
-17 -10 -24 0 -4 8 -13 10 -19 7 -6 -4 -11 0 -11 10 0 9 -8 24 -18 33 -34 31
-87 105 -84 118 2 7 -3 12 -10 11 -8 -2 -12 4 -10 16 2 11 -1 17 -9 14 -16 -5
-69 40 -69 59 0 8 -4 11 -10 8 -6 -4 -7 1 -3 11 5 13 2 16 -9 12 -18 -7 -78
37 -78 57 0 9 -6 12 -15 9 -8 -4 -15 -2 -15 4 0 6 6 12 13 15 7 2 8 8 3 13 -5
5 -11 4 -13 -3 -8 -21 -18 -15 -77 42 -30 30 -61 55 -67 55 -7 0 -35 17 -63
39 -28 21 -62 41 -74 45 -13 4 -21 13 -19 19 2 7 -3 17 -12 24 -22 16 -4 30
19 15 12 -7 20 -8 20 -2 0 5 -4 10 -10 10 -5 0 -10 7 -10 15 0 8 4 15 8 15 4
0 9 9 10 20 4 43 6 50 14 50 4 0 8 7 8 15 0 8 8 15 17 15 9 0 13 3 10 6 -3 4
5 26 19 50 14 24 24 48 22 53 -1 5 -12 -10 -22 -32z m1012 -550 c6 -4 9 -20 7
-35 -2 -15 -4 -33 -4 -39 -1 -9 -17 -13 -46 -13 l-45 0 0 44 c0 24 4 46 10 48
16 5 66 2 78 -5z m190 4 c7 -1 12 -17 12 -46 l0 -45 -45 0 c-39 0 -45 3 -51
25 -3 14 -4 36 0 49 6 23 9 24 84 17z m-380 -49 l3 -43 -48 3 c-44 3 -48 5
-51 31 -6 49 3 58 50 55 43 -3 43 -3 46 -46z m-103 -92 c0 -44 -1 -45 -35 -48
-38 -4 -60 16 -60 53 0 31 21 46 60 43 34 -3 35 -4 35 -48z m193 38 c7 -7 12
-24 12 -38 0 -33 -17 -50 -50 -50 -33 0 -50 17 -50 50 0 33 17 50 50 50 14 0
31 -5 38 -12z m202 -14 c13 -34 13 -40 -6 -58 -33 -34 -94 -9 -94 38 0 31 19
46 57 46 27 0 35 -5 43 -26z m198 -12 c4 -41 -12 -62 -47 -62 -46 0 -64 36
-40 81 8 16 19 19 47 17 34 -3 37 -6 40 -36z m-494 -78 c18 -46 -1 -84 -40
-84 -44 0 -72 58 -42 88 18 18 75 15 82 -4z m182 8 c20 -13 24 -55 7 -74 -32
-36 -83 -17 -83 32 0 14 5 31 12 38 13 13 47 16 64 4z m198 2 c21 -8 21 -67 1
-84 -20 -16 -62 -5 -75 21 -9 16 -8 26 5 45 15 24 38 30 69 18z m-282 -120
c15 -33 1 -58 -36 -62 -33 -4 -56 13 -56 42 0 51 71 66 92 20z m186 14 c33
-33 -3 -90 -48 -79 -28 8 -40 52 -19 77 14 17 51 18 67 2z m196 -4 c19 -18 21
-45 4 -62 -16 -16 -65 -15 -75 1 -7 12 -5 55 4 70 8 13 51 7 67 -9z m-484
-100 c19 -22 1 -68 -29 -72 -23 -4 -61 22 -61 41 0 19 33 47 55 47 13 0 28 -7
35 -16z m194 -5 c20 -30 6 -63 -28 -67 -33 -4 -56 13 -56 42 0 47 57 63 84 25z
m194 9 c28 -28 7 -78 -33 -78 -27 0 -45 18 -45 45 0 27 18 45 45 45 12 0 26
-5 33 -12z m-548 -63 c0 -8 -4 -15 -10 -15 -5 0 -10 7 -10 15 0 8 5 15 10 15
6 0 10 -7 10 -15z m65 -53 c8 -33 -21 -64 -52 -56 -13 4 -23 10 -23 15 0 5 -7
9 -15 9 -17 0 -20 -16 -5 -25 6 -4 8 -11 4 -16 -3 -5 -10 -7 -15 -3 -5 3 -7
10 -4 15 4 5 -1 9 -9 9 -19 0 -21 16 -3 23 10 4 10 7 0 18 -7 7 -13 17 -13 21
0 13 28 9 32 -4 3 -8 12 -5 27 8 29 28 67 21 76 -14z m393 -15 c4 -34 -30 -54
-64 -38 -31 14 -32 54 -2 75 19 13 25 14 43 2 11 -7 21 -25 23 -39z m-578 21
c0 16 18 15 36 -2 17 -18 18 -33 2 -38 -8 -3 9 -25 39 -55 47 -46 55 -63 31
-63 -4 0 -8 7 -8 17 0 14 -2 14 -20 -2 -20 -18 -20 -17 -20 11 -1 33 -20 59
-67 92 -19 14 -33 32 -33 44 0 20 1 21 20 3 11 -10 20 -13 20 -7z m378 -3 c10
-21 9 -28 -9 -46 -24 -24 -47 -22 -64 6 -20 31 -2 65 33 65 21 0 32 -7 40 -25z
m391 3 c10 -28 4 -46 -20 -59 -41 -22 -80 36 -47 69 20 20 58 14 67 -10z
m-489 -93 c27 -33 -21 -86 -60 -65 -23 12 -28 65 -7 73 24 10 55 7 67 -8z
m184 9 c23 -9 20 -50 -6 -68 -19 -13 -25 -14 -43 -2 -21 15 -27 43 -12 64 10
13 36 16 61 6z m206 -9 c10 -12 10 -21 1 -41 -9 -21 -17 -25 -44 -22 -25 2
-33 8 -35 26 -7 45 49 72 78 37z m-566 -77 c5 -10 7 -10 12 0 9 18 21 15 54
-15 21 -18 27 -30 20 -37 -14 -14 -13 -26 3 -22 6 1 9 1 4 -1 -4 -3 -4 -10 0
-16 4 -6 -7 -1 -23 11 -41 30 -94 78 -94 86 0 11 18 6 24 -6z m266 -23 c26
-32 -13 -81 -47 -59 -35 22 -23 74 17 74 10 0 23 -7 30 -15z m200 -4 c19 -36
-11 -68 -51 -56 -19 6 -27 54 -12 68 13 14 53 6 63 -12z m188 7 c32 -32 -8
-80 -48 -58 -34 18 -19 70 20 70 9 0 21 -5 28 -12z m-488 -103 c6 -8 10 -22 8
-32 -5 -23 33 -53 67 -53 25 0 27 -3 23 -35 -3 -25 0 -35 10 -35 7 0 10 -5 7
-10 -5 -8 -11 -7 -21 1 -11 9 -18 9 -26 1 -13 -13 -37 26 -40 65 -1 12 -5 23
-8 23 -3 0 -23 20 -43 45 -37 44 -37 45 -14 45 14 0 30 -7 37 -15z m194 9 c22
-8 20 -37 -3 -58 -15 -14 -24 -15 -40 -6 -20 10 -29 49 -14 63 8 9 36 9 57 1z
m199 -15 c23 -37 -29 -69 -61 -37 -16 16 -15 23 4 43 19 19 43 16 57 -6z m-95
-102 c5 -23 -15 -47 -39 -47 -24 0 -38 48 -18 61 21 14 53 6 57 -14z m190 14
c18 -11 18 -12 3 -39 -23 -43 -75 -13 -57 34 6 16 34 18 54 5z m-398 -91 c0
-5 -5 -10 -11 -10 -5 0 -7 5 -4 10 3 6 8 10 11 10 2 0 4 -4 4 -10z m50 2 c0
-4 12 -8 27 -7 34 0 42 -28 17 -56 -17 -19 -50 -27 -39 -9 3 6 0 10 -7 10 -9
0 -14 12 -14 35 0 19 4 35 8 35 4 0 8 -4 8 -8z m255 -31 c0 -35 -29 -50 -54
-27 -28 25 -11 59 27 54 21 -2 27 -8 27 -27z m-281 -2 c-3 -5 -10 -7 -15 -3
-5 3 -7 10 -3 15 3 5 10 7 15 3 5 -3 7 -10 3 -15z m-59 -7 c-3 -3 -11 0 -18 7
-9 10 -8 11 6 5 10 -3 15 -9 12 -12z m60 -31 c3 -5 1 -12 -5 -16 -5 -3 -10 1
-10 9 0 18 6 21 15 7z m75 -25 c0 -3 -4 -8 -10 -11 -5 -3 -10 -1 -10 4 0 6 5
11 10 11 6 0 10 -2 10 -4z m-91 -50 c17 -18 20 -26 10 -26 -19 1 -55 31 -62
53 -5 14 -3 16 11 8 9 -5 28 -21 41 -35z m191 28 c11 -13 10 -18 -7 -35 -19
-19 -21 -19 -37 -4 -10 11 -16 12 -16 4 0 -7 -2 -10 -5 -7 -3 3 0 17 6 32 14
29 40 34 59 10z m200 -7 c0 -32 -18 -49 -42 -36 -18 10 -24 39 -11 52 3 4 17
7 30 7 17 0 23 -6 23 -23z m-330 3 c0 -5 -5 -10 -11 -10 -5 0 -7 5 -4 10 3 6
8 10 11 10 2 0 4 -4 4 -10z m50 0 c0 -5 -5 -10 -11 -10 -5 0 -7 5 -4 10 3 6 8
10 11 10 2 0 4 -4 4 -10z m-50 -50 c0 -5 -2 -10 -4 -10 -3 0 -8 5 -11 10 -3 6
-1 10 4 10 6 0 11 -4 11 -10z m50 0 c0 -5 -5 -10 -11 -10 -5 0 -7 5 -4 10 3 6
8 10 11 10 2 0 4 -4 4 -10z m-25 -30 c-3 -5 0 -10 8 -10 10 0 13 -7 10 -19 -8
-30 -29 -32 -44 -5 -11 21 -11 27 1 34 20 13 33 12 25 0z m203 -28 c4 -30 -26
-42 -44 -17 -10 14 -11 22 -2 32 16 20 42 12 46 -15z m-128 14 c0 -3 -4 -8
-10 -11 -5 -3 -10 -1 -10 4 0 6 5 11 10 11 6 0 10 -2 10 -4z m32 -90 c7 5 9
-1 5 -16 -3 -13 -1 -30 5 -37 7 -9 7 -13 0 -13 -6 0 -12 6 -15 13 -4 10 -7 10
-18 0 -7 -7 -17 -13 -21 -13 -4 0 -7 6 -5 13 1 6 -4 11 -10 10 -7 -2 -13 2
-13 7 0 6 5 10 10 10 6 0 10 5 10 11 0 7 8 18 18 25 14 10 18 10 20 -2 2 -8 8
-11 14 -8z m196 -22 c4 -26 -26 -40 -45 -21 -8 7 -11 21 -7 31 9 24 48 17 52
-10z m-248 -58 c0 -3 -4 -8 -10 -11 -5 -3 -10 -1 -10 4 0 6 5 11 10 11 6 0 10
-2 10 -4z m50 0 c0 -11 -19 -15 -25 -6 -3 5 1 10 9 10 9 0 16 -2 16 -4z m97
-32 c4 -11 -1 -22 -12 -30 -24 -18 -35 -18 -35 1 0 9 -6 12 -16 8 -14 -5 -13
-3 2 15 22 26 52 29 61 6z m-107 -14 c0 -5 -5 -10 -11 -10 -5 0 -7 5 -4 10 3
6 8 10 11 10 2 0 4 -4 4 -10z m-1010 -22 c0 -6 -3 -8 -7 -5 -3 4 -12 2 -20 -5
-11 -8 -12 -7 -7 6 7 18 34 22 34 4z m-7 -38 c-3 -11 -10 -23 -16 -27 -7 -4
-8 0 -4 11 4 10 7 22 7 27 0 5 4 9 9 9 5 0 7 -9 4 -20z m1038 -19 c-8 -5 -11
-17 -6 -32 5 -19 4 -21 -4 -9 -6 8 -11 11 -11 5 0 -14 -20 17 -20 33 0 7 12
12 28 12 19 0 23 -3 13 -9z m185 -2 c10 -17 -23 -46 -37 -32 -7 7 -9 19 -6 27
7 18 33 21 43 5z m-90 -91 c4 4 1 -4 -8 -18 -23 -38 -48 -38 -48 -1 0 28 2 30
24 21 13 -5 28 -6 32 -2z m184 -18 c0 -23 -35 -28 -43 -6 -7 18 1 26 25 26 11
0 18 -7 18 -20z m-103 -103 c-7 -21 -32 -13 -35 11 -3 21 -1 22 18 12 12 -6
19 -17 17 -23z"/>
<path d="M3146 1205 c-3 -9 0 -15 9 -15 8 0 15 7 15 15 0 8 -4 15 -9 15 -5 0
-11 -7 -15 -15z"/>
<path d="M2687 2293 c-20 -40 -12 -59 21 -49 28 9 36 47 14 68 -16 16 -18 15
-35 -19z"/>
<path d="M2858 2304 c-22 -47 24 -83 62 -49 20 18 17 42 -8 63 -24 19 -41 14
-54 -14z"/>
<path d="M3066 2317 c-38 -27 2 -95 42 -71 23 15 27 48 7 68 -20 19 -26 20
-49 3z"/>
<path d="M3257 2312 c-24 -26 -21 -51 8 -64 21 -9 28 -8 45 7 25 23 25 30 0
55 -25 25 -32 25 -53 2z"/>
<path d="M3458 2319 c-11 -6 -18 -22 -18 -39 0 -23 5 -31 25 -36 15 -4 32 -1
40 6 21 18 19 57 -4 70 -23 12 -22 12 -43 -1z"/>
<path d="M3645 2310 c-38 -42 19 -94 59 -54 21 20 20 37 -2 57 -24 22 -35 21
-57 -3z"/>
<path d="M3845 2314 c-20 -20 -16 -53 8 -68 36 -23 75 35 47 70 -16 18 -35 18
-55 -2z"/>
<path d="M11 2208 c-9 -23 0 -51 20 -63 19 -12 57 4 62 27 13 49 -65 82 -82
36z"/>
<path d="M212 2218 c-28 -28 -7 -78 33 -78 27 0 45 18 45 47 0 35 -53 56 -78
31z"/>
<path d="M412 2218 c-19 -19 -14 -56 8 -68 46 -25 88 23 54 61 -20 22 -44 25
-62 7z"/>
<path d="M606 2214 c-26 -25 -18 -54 17 -67 45 -17 77 40 40 69 -24 18 -38 17
-57 -2z"/>
<path d="M800 2211 c-15 -30 -12 -49 10 -61 49 -26 90 25 49 61 -28 24 -46 24
-59 0z"/>
<path d="M2768 2219 c-21 -12 -24 -49 -6 -67 18 -18 56 -14 68 7 14 27 13 37
-6 55 -18 18 -32 20 -56 5z"/>
<path d="M2955 2214 c-9 -9 -14 -23 -11 -31 3 -8 6 -18 6 -23 0 -15 38 -22 60
-10 11 6 20 21 20 33 0 44 -44 62 -75 31z"/>
<path d="M3156 2214 c-22 -21 -20 -51 3 -64 31 -16 51 -12 62 14 22 49 -28 88
-65 50z"/>
<path d="M3352 2218 c-27 -27 -7 -78 31 -78 22 0 46 27 47 52 0 31 -55 49 -78
26z"/>
<path d="M3553 2222 c-11 -7 -16 -25 -14 -53 1 -21 48 -34 67 -18 19 16 18 65
-2 73 -21 8 -36 7 -51 -2z"/>
<path d="M3740 2216 c-15 -19 -9 -56 12 -69 23 -15 68 6 68 32 0 42 -54 67
-80 37z"/>
<path d="M3944 2223 c-34 -24 -11 -87 29 -81 18 2 22 10 22 43 0 32 -4 40 -20
43 -11 1 -25 -1 -31 -5z"/>
<path d="M2621 2204 c2 -11 0 -25 -5 -32 -10 -16 -2 -27 13 -17 14 8 14 52 0
61 -6 4 -9 -1 -8 -12z"/>
<path d="M315 2123 c-20 -19 -16 -62 7 -77 24 -15 68 11 68 39 0 39 -50 64
-75 38z"/>
<path d="M516 2126 c-38 -30 -19 -91 27 -84 29 4 49 45 34 69 -14 23 -42 30
-61 15z"/>
<path d="M2854 2115 c-15 -23 -15 -27 0 -50 26 -40 69 -31 81 16 5 21 2 30
-16 43 -32 22 -46 20 -65 -9z"/>
<path d="M3062 2124 c-25 -17 -28 -41 -8 -66 18 -24 52 -23 70 3 16 23 12 47
-12 67 -20 15 -23 15 -50 -4z"/>
<path d="M3262 2124 c-46 -32 -16 -96 36 -78 33 11 41 48 16 75 -21 23 -24 23
-52 3z"/>
<path d="M3452 2124 c-25 -17 -28 -41 -8 -66 25 -34 85 -13 86 30 0 13 -35 52
-48 52 -4 0 -18 -7 -30 -16z"/>
<path d="M3645 2124 c-19 -20 -16 -63 6 -77 9 -5 28 -7 42 -3 21 5 27 12 27
35 0 27 -26 61 -48 61 -6 0 -18 -7 -27 -16z"/>
<path d="M3840 2120 c-24 -24 -24 -29 -4 -58 18 -27 45 -28 67 -4 23 25 21 48
-5 66 -29 20 -34 20 -58 -4z"/>
<path d="M112 2118 c-27 -27 -1 -78 38 -78 29 0 54 43 40 69 -12 24 -58 29
-78 9z"/>
<path d="M702 2118 c-30 -30 0 -85 41 -74 31 7 46 48 27 71 -15 18 -51 20 -68
3z"/>
<path d="M930 2116 c0 -9 -4 -16 -10 -16 -5 0 -10 5 -10 11 0 5 -4 7 -10 4
-14 -9 -13 -48 2 -63 31 -31 84 9 69 52 -10 25 -41 34 -41 12z"/>
<path d="M2662 2118 c-7 -7 -12 -21 -12 -33 0 -44 52 -61 84 -26 14 15 15 23
5 45 -13 28 -55 36 -77 14z"/>
<path d="M1720 2105 c-10 -12 -10 -20 -1 -38 7 -13 10 -15 6 -4 -3 10 0 27 5
38 13 23 7 25 -10 4z"/>
<path d="M1280 2073 c0 -13 29 -38 35 -31 3 3 -4 13 -15 23 -11 10 -20 13 -20
8z"/>
<path d="M1325 2070 c-3 -5 -1 -10 4 -10 6 0 11 5 11 10 0 6 -2 10 -4 10 -3 0
-8 -4 -11 -10z"/>
<path d="M17 2022 c-36 -39 -9 -88 41 -77 28 6 32 11 32 40 0 24 -6 38 -19 45
-27 14 -35 13 -54 -8z"/>
<path d="M213 2028 c-30 -39 -17 -75 29 -83 21 -4 31 0 44 20 15 23 15 27 0
50 -18 27 -57 34 -73 13z"/>
<path d="M406 2024 c-32 -31 -8 -84 38 -84 30 0 46 18 46 52 0 43 -53 64 -84
32z"/>
<path d="M608 2026 c-21 -15 -24 -56 -6 -74 18 -18 53 -15 71 6 22 24 21 45
-1 65 -22 20 -41 21 -64 3z"/>
<path d="M802 2028 c-21 -21 -12 -90 11 -83 7 2 24 6 40 9 21 5 27 12 27 33 0
42 -50 69 -78 41z"/>
<path d="M996 2021 c-26 -28 -12 -68 25 -73 50 -8 77 42 41 75 -24 22 -45 21
-66 -2z"/>
<path d="M1198 2029 c-26 -15 -23 -65 3 -80 33 -17 69 3 69 39 0 46 -32 65
-72 41z"/>
<path d="M2575 2030 c-3 -6 1 -13 9 -16 9 -3 14 -10 11 -14 -3 -5 -1 -11 5
-15 5 -3 10 -1 10 5 0 7 8 9 20 5 25 -8 26 7 2 28 -21 19 -48 22 -57 7z"/>
<path d="M2756 2021 c-26 -29 -9 -75 28 -79 35 -4 56 13 56 47 0 51 -50 69
-84 32z"/>
<path d="M2951 2017 c-18 -33 1 -77 33 -77 49 0 73 52 38 83 -26 24 -56 21
-71 -6z"/>
<path d="M3152 2028 c-11 -14 -15 -33 -13 -60 1 -21 31 -31 65 -22 21 5 26 12
26 38 0 18 -5 37 -12 44 -16 16 -53 15 -66 0z"/>
<path d="M3354 2032 c-20 -13 -24 -55 -7 -74 33 -37 83 -16 83 34 0 37 -45 61
-76 40z"/>
<path d="M3548 2029 c-25 -14 -24 -65 2 -79 32 -17 67 -3 72 31 7 47 -33 72
-74 48z"/>
<path d="M3735 2024 c-10 -10 -13 -24 -9 -38 11 -36 22 -44 57 -37 26 6 33 12
35 36 6 48 -48 73 -83 39z"/>
<path d="M3938 2026 c-19 -14 -23 -43 -10 -62 4 -6 22 -14 40 -17 l33 -7 -3
48 c-2 38 -7 47 -23 49 -11 2 -28 -3 -37 -11z"/>
<path d="M1380 2025 c0 -6 7 -21 16 -33 9 -13 13 -26 10 -29 -3 -4 3 -13 15
-21 21 -14 20 -15 -12 -48 -18 -19 -39 -34 -46 -34 -7 0 -12 -4 -10 -8 1 -5
-17 -30 -40 -55 -24 -26 -43 -42 -43 -37 0 6 -5 10 -11 10 -6 0 -8 -7 -5 -16
4 -10 -8 -33 -32 -63 -21 -25 -55 -69 -76 -98 -45 -63 -66 -62 -66 2 0 50 5
55 54 57 25 1 34 6 34 17 -1 9 0 21 2 26 8 33 -1 44 -42 47 -43 3 -43 3 -48
48 l-5 45 -45 0 -45 0 -3 -47 -3 -48 -49 0 -49 0 -3 -42 c-3 -41 -4 -43 -39
-46 -42 -4 -56 10 -61 57 -3 33 -5 35 -43 35 -39 1 -40 2 -43 41 -4 48 -17 65
-47 65 -44 0 -55 -10 -55 -51 0 -41 -20 -61 -56 -54 -10 2 -25 4 -31 4 -9 1
-13 17 -13 45 0 48 -13 60 -58 51 -36 -7 -42 -14 -42 -56 0 -36 -2 -39 -30
-40 -16 -1 -36 -2 -42 -3 -8 -1 -15 17 -18 44 l-5 45 -44 3 c-47 4 -65 -10
-55 -40 3 -10 2 -27 -1 -39 -6 -17 -14 -20 -53 -17 -46 3 -47 4 -49 38 -1 19
-2 41 -2 48 -1 9 -14 12 -43 10 l-43 -3 -3 -48 c-3 -42 -1 -48 15 -47 10 1 33
2 51 1 33 -1 33 -2 30 -43 l-3 -43 -48 0 -47 0 0 -64 c0 -51 3 -62 12 -53 15
15 61 15 76 0 15 -15 15 -61 0 -76 -17 -17 -48 -15 -70 5 -17 15 -18 13 -18
-68 1 -62 3 -79 11 -66 12 21 52 22 73 1 20 -19 20 -24 0 -52 -20 -29 -58 -29
-72 1 -8 16 -11 -154 -11 -631 l-1 -652 268 1 268 1 18 86 c10 48 27 99 37
114 11 15 19 43 19 62 0 22 9 45 24 63 16 20 33 70 57 177 33 144 58 212 59
157 0 -24 13 -25 64 -5 14 5 12 -5 -10 -52 -35 -80 -57 -145 -79 -234 -11 -44
-26 -81 -37 -90 -12 -9 -21 -33 -25 -60 -2 -25 -11 -58 -18 -75 -7 -16 -16
-48 -20 -70 -4 -22 -9 -48 -12 -57 -4 -17 29 -18 591 -18 328 0 596 1 596 3 0
1 -9 25 -20 54 -25 67 -29 89 -36 208 -7 109 -8 108 49 28 24 -32 33 -53 25
-55 -18 -6 2 -30 21 -25 16 4 21 0 50 -36 12 -15 12 -17 -3 -11 -13 5 -15 2
-9 -12 10 -28 35 -44 61 -39 13 2 20 0 16 -6 -3 -6 3 -13 14 -16 11 -2 22 -12
25 -22 2 -9 13 -17 24 -18 11 -1 33 -13 48 -27 43 -40 64 -32 24 10 -11 12
-22 30 -23 40 -2 11 -11 18 -21 17 -13 -1 -14 2 -6 10 9 9 6 16 -11 30 -23 19
-23 19 7 1 17 -10 47 -30 67 -44 34 -25 36 -28 20 -44 -16 -16 -15 -17 5 -22
13 -4 20 -11 16 -17 -3 -6 -1 -7 6 -3 6 4 9 12 6 17 -4 5 -1 9 5 9 6 0 8 5 4
12 -4 6 -3 9 2 7 5 -3 21 -11 36 -18 15 -8 25 -18 22 -23 -7 -12 214 -10 237
2 26 14 24 29 -3 22 -16 -4 -19 -2 -13 9 7 11 6 12 -6 2 -16 -13 -61 -14 -53
-1 3 5 10 5 16 2 7 -5 9 0 6 14 -4 12 -2 22 4 22 13 0 38 26 38 39 0 20 -18
12 -23 -10 -4 -15 -11 -20 -22 -15 -9 3 -14 2 -11 -2 2 -4 -30 -6 -72 -6 -82
2 -202 38 -202 62 0 6 3 12 8 12 4 0 8 15 9 33 l2 32 -29 -34 c-21 -25 -33
-32 -47 -26 -17 7 -16 8 5 18 27 13 29 37 2 37 -11 0 -20 -5 -20 -11 0 -5 5
-7 12 -3 6 4 8 3 5 -2 -3 -6 -18 -10 -34 -9 -23 0 -28 4 -26 23 2 12 -3 22
-10 23 -6 1 -21 2 -31 3 -11 0 -21 7 -24 15 -2 8 0 11 5 8 16 -10 33 7 23 23
-8 12 -10 12 -10 1 0 -10 -3 -11 -14 -2 -11 9 -15 8 -20 -4 -3 -9 -10 -13 -16
-10 -5 3 -10 -2 -10 -12 0 -13 -8 -9 -33 17 -35 36 -77 94 -77 104 0 3 5 6 11
6 5 0 7 -5 3 -12 -5 -7 -3 -8 7 -2 8 5 18 9 24 9 5 0 11 8 13 18 2 9 -2 17 -8
17 -10 0 -10 3 0 15 15 18 5 35 -21 35 -12 0 -17 4 -13 11 5 8 1 8 -13 0 -11
-6 -23 -7 -27 -4 -3 3 -6 1 -6 -5 0 -6 5 -14 10 -17 6 -3 10 -1 10 4 0 6 4 11
9 11 5 0 9 -16 8 -35 -1 -19 -2 -35 -3 -35 -9 0 -44 72 -44 89 0 11 -4 21 -10
21 -5 0 -10 12 -10 28 0 22 2 24 11 12 8 -12 9 -9 5 12 -5 22 -3 26 9 22 17
-7 20 7 5 22 -6 6 -2 20 11 39 16 23 19 25 14 8 -6 -20 -3 -21 47 -18 67 4 66
3 48 15 -11 7 -7 9 15 6 45 -6 69 -17 55 -26 -15 -9 -4 -30 15 -30 7 0 15 7
19 15 4 11 11 13 30 5 17 -6 26 -5 29 3 3 7 -6 13 -21 14 -14 0 -31 8 -36 16
-11 14 -17 17 -34 17 -17 0 -54 39 -47 50 6 10 40 6 87 -12 15 -6 25 -14 22
-19 -3 -5 3 -6 12 -2 10 4 15 2 11 -3 -4 -7 6 -9 25 -6 23 4 29 2 23 -8 -5 -8
-4 -11 2 -7 6 4 40 3 75 -2 34 -5 72 -5 83 0 14 5 1 8 -39 8 -126 2 -279 68
-501 218 l-130 88 -17 60 c-20 74 -23 52 -3 -30 23 -94 17 -96 -25 -10 -46 96
-45 95 -140 171 -80 65 -160 146 -179 181 -21 40 27 136 142 288 69 90 132
164 160 183 16 12 26 9 86 -32 37 -25 97 -57 132 -72 207 -86 188 -74 194
-119 2 -22 7 -53 9 -70 2 -16 3 5 2 48 -1 68 -3 78 -21 83 -214 62 -416 191
-497 319 -21 33 -38 55 -38 50z m-1090 -291 c6 -6 10 -27 8 -45 -3 -33 -5 -34
-50 -37 l-48 -3 0 45 c0 25 5 46 12 48 22 8 67 3 78 -8z m395 -40 l0 -39 -45
0 -45 0 -3 42 c-3 37 0 42 20 45 13 2 34 1 48 -2 21 -6 25 -12 25 -46z m393 2
l-3 -41 -45 0 -45 0 -3 42 c-3 46 5 52 66 45 32 -4 33 -6 30 -46z m-590 2 l-3
-43 -45 0 c-42 0 -45 2 -48 28 -6 48 3 57 53 57 l46 0 -3 -42z m-294 -70 c7
-11 7 -26 0 -45 -7 -23 -16 -29 -45 -31 -30 -3 -37 1 -47 22 -8 18 -8 34 -2
52 9 22 15 25 46 22 21 -2 42 -10 48 -20z m184 10 c7 -7 12 -24 12 -38 0 -34
-17 -50 -52 -50 -40 0 -58 49 -33 90 9 14 58 13 73 -2z m204 -13 c17 -37 -3
-75 -40 -75 -35 0 -52 16 -52 50 0 34 17 50 52 50 21 0 32 -7 40 -25z m197 7
c6 -11 7 -32 2 -48 -6 -24 -13 -30 -41 -32 -38 -4 -50 9 -50 54 0 39 6 44 46
44 22 0 37 -6 43 -18z m185 12 c19 -7 22 -64 4 -82 -7 -7 -24 -12 -38 -12 -14
0 -31 5 -38 12 -15 15 -15 61 0 76 13 13 47 16 72 6z m-674 -120 c13 -33 -2
-62 -37 -70 -33 -9 -64 24 -55 58 7 29 20 38 55 38 20 0 30 -7 37 -26z m188
14 c33 -33 -2 -94 -47 -83 -28 7 -41 21 -41 47 0 39 60 64 88 36z m202 -8 c24
-45 -25 -94 -69 -71 -23 13 -29 59 -9 79 20 20 66 15 78 -8z m186 6 c23 -23
18 -65 -10 -77 -45 -21 -90 26 -66 71 13 24 55 27 76 6z m211 0 c-4 -11 -1
-13 10 -9 21 8 -17 -50 -56 -86 -17 -16 -22 -25 -14 -28 9 -3 10 -10 3 -22
-12 -23 -3 -107 15 -143 7 -15 9 -28 4 -28 -17 0 -9 -30 9 -30 16 -1 16 -2 -2
-15 -10 -7 -15 -18 -12 -23 3 -5 -5 -14 -18 -20 -20 -9 -27 -7 -42 9 -9 10
-15 22 -11 25 9 9 28 -6 22 -17 -4 -5 1 -9 9 -9 22 0 20 30 -1 30 -17 1 -17 1
0 14 9 7 17 18 17 24 0 6 6 12 12 14 8 3 -3 19 -27 42 -31 30 -36 39 -25 46 8
5 11 12 7 17 -5 4 -12 1 -16 -6 -5 -7 -14 -10 -21 -6 -8 5 -5 13 10 27 16 15
24 17 35 8 9 -7 15 -8 20 0 3 5 -1 10 -10 10 -9 0 -15 6 -12 13 2 6 10 11 16
10 6 -2 11 4 11 12 0 22 -9 19 -32 -10 -34 -44 -88 -28 -88 27 0 32 35 47 68
29 43 -23 68 -8 37 23 -36 36 -6 86 52 86 27 0 34 -4 30 -14z m-887 -108 c0
-3 3 -13 6 -21 8 -23 -30 -57 -56 -50 -25 7 -45 44 -37 68 9 22 48 34 69 21
10 -6 18 -14 18 -18z m188 10 c16 -16 15 -53 -2 -68 -21 -16 -56 -9 -72 15
-27 41 39 88 74 53z m197 -8 c15 -17 16 -24 7 -46 -10 -20 -18 -25 -44 -22
-40 4 -56 28 -40 62 14 32 51 35 77 6z m194 6 c7 -8 11 -27 9 -43 -3 -24 -8
-28 -37 -31 -36 -4 -51 9 -51 44 0 40 54 61 79 30z m-491 -98 c15 -15 15 -51
0 -66 -28 -28 -78 -7 -78 33 0 27 18 45 45 45 12 0 26 -5 33 -12z m204 -12
c14 -33 5 -54 -28 -62 -47 -12 -79 51 -40 78 23 16 56 8 68 -16z m186 12 c27
-27 7 -78 -29 -78 -21 0 -49 26 -49 45 0 35 53 58 78 33z m203 -9 c16 -30 -3
-69 -34 -69 -29 0 -47 17 -47 45 0 45 60 63 81 24z m69 -29 c0 -5 -4 -10 -10
-10 -5 0 -10 5 -10 10 0 6 5 10 10 10 6 0 10 -4 10 -10z m20 -18 c0 -4 -5 -13
-12 -20 -16 -16 4 -16 21 1 11 10 12 7 7 -15 -3 -15 -2 -30 4 -33 6 -3 7 1 4
9 -4 11 0 16 10 16 24 0 20 -13 -18 -49 -25 -25 -39 -31 -55 -26 -34 11 -37
50 -7 90 25 33 46 45 46 27z m-780 -47 c14 -17 6 -61 -13 -68 -8 -3 -25 0 -38
7 -18 9 -23 18 -20 36 5 40 47 54 71 25z m202 -11 c11 -23 10 -29 -11 -45 -21
-17 -26 -18 -45 -6 -41 27 -27 77 20 77 17 0 28 -9 36 -26z m196 -11 c4 -43
-28 -62 -64 -38 -13 8 -24 22 -24 30 0 23 31 46 59 43 21 -2 27 -9 29 -35z
m192 16 c9 -16 8 -26 -5 -45 -19 -29 -26 -30 -56 -5 -21 16 -22 22 -11 45 15
33 56 36 72 5z m-684 -104 c11 -43 -34 -73 -64 -43 -27 27 -6 68 35 68 16 0
24 -7 29 -25z m189 11 c17 -12 18 -17 7 -41 -16 -35 -65 -33 -70 3 -7 50 23
68 63 38z m200 -20 c0 -56 -65 -61 -73 -6 -4 27 14 41 48 38 20 -3 25 -8 25
-32z m199 12 c15 -24 -3 -52 -37 -56 -33 -4 -53 28 -37 59 14 25 58 23 74 -3z
m190 6 c9 -8 16 -19 16 -24 0 -15 -31 -40 -49 -40 -35 0 -54 43 -29 68 17 17
44 15 62 -4z m96 -4 c0 -5 -4 -10 -10 -10 -5 0 -10 5 -10 10 0 6 5 10 10 10 6
0 10 -4 10 -10z m-780 -99 c20 -38 -13 -71 -51 -51 -21 12 -26 56 -6 63 26 11
47 6 57 -12z m184 13 c23 -9 20 -51 -5 -64 -25 -14 -49 2 -49 35 0 34 17 43
54 29z m204 -6 c18 -18 14 -46 -7 -58 -30 -15 -40 -12 -53 15 -19 41 28 75 60
43z m202 -3 c10 -12 9 -20 -4 -40 -18 -27 -35 -32 -54 -13 -13 13 -16 50 -5
61 12 12 50 7 63 -8z m-686 -108 c9 -15 7 -22 -13 -38 -22 -18 -25 -18 -42 -3
-22 20 -24 35 -7 52 17 17 48 11 62 -11z m180 17 c22 -8 20 -51 -2 -63 -25
-13 -52 5 -52 34 0 29 22 41 54 29z m204 -6 c20 -20 14 -47 -13 -54 -25 -6
-55 9 -55 28 0 30 46 48 68 26z m202 -8 c8 -15 6 -24 -10 -40 -17 -17 -23 -18
-40 -8 -19 12 -27 48 -13 61 14 14 53 6 63 -13z m140 11 c0 -12 -29 -35 -36
-28 -7 6 17 36 29 37 4 0 7 -4 7 -9z m-40 -45 c0 -11 -19 -15 -25 -6 -3 5 1
10 9 10 9 0 16 -2 16 -4z m-30 -32 c0 -8 5 -12 10 -9 15 9 12 -7 -8 -47 -16
-30 -22 -34 -37 -26 -12 7 -16 7 -11 0 3 -6 2 -13 -3 -16 -17 -11 -21 11 -5
24 12 11 12 15 2 22 -10 8 -10 11 0 15 6 2 12 11 12 19 0 8 6 11 15 8 11 -5
13 -2 9 10 -3 9 -1 16 5 16 6 0 11 -7 11 -16z m-560 -33 c7 -15 6 -24 -6 -36
-31 -31 -82 6 -55 39 18 22 48 20 61 -3z m189 0 c7 -13 6 -23 -3 -36 -23 -32
-67 2 -52 40 8 21 43 19 55 -4z m200 2 c12 -23 -4 -53 -29 -53 -25 0 -41 29
-29 52 12 23 45 23 58 1z m241 -3 c0 -13 61 -41 72 -34 14 9 9 -4 -8 -21 -10
-9 -24 -13 -38 -10 -15 5 -17 4 -7 -3 9 -7 10 -12 2 -16 -19 -12 -33 5 -29 35
3 16 2 29 -2 29 -4 0 -7 7 -7 15 0 8 4 15 9 15 4 0 8 -5 8 -10z m-140 -85 c0
-8 3 -14 8 -12 4 1 8 -2 9 -8 0 -5 -3 -9 -8 -7 -5 1 -9 -3 -9 -9 0 -6 -7 -17
-15 -26 -14 -14 -18 -13 -35 7 -22 25 -18 43 13 58 31 15 37 14 37 -3z m1215
5 c4 -6 11 -7 17 -4 7 4 8 2 4 -5 -5 -8 -12 -9 -19 -2 -7 5 -23 11 -37 14
l-25 4 27 2 c15 0 30 -4 33 -9z m-1807 -31 c3 -28 -16 -43 -43 -33 -15 6 -21
45 -8 58 16 16 48 1 51 -25z m186 25 c22 -8 20 -41 -3 -54 -28 -14 -55 13 -41
41 11 20 19 23 44 13z m204 -25 c3 -28 -16 -43 -43 -33 -30 12 -13 67 19 62
14 -2 22 -11 24 -29z m338 -27 c19 2 34 1 34 -3 0 -6 -61 -39 -73 -39 -9 0
-15 40 -9 63 l7 22 3 -23 c3 -21 8 -23 38 -20z m1014 -2 c8 -5 11 -12 7 -16
-4 -4 -2 -13 4 -21 7 -8 8 -13 1 -13 -5 0 -15 7 -22 15 -10 12 -10 15 1 15 9
1 8 5 -5 15 -22 16 -10 20 14 5z m-1130 -10 c0 -5 -5 -10 -11 -10 -5 0 -7 5
-4 10 3 6 8 10 11 10 2 0 4 -4 4 -10z m-70 -30 c0 -5 -2 -10 -4 -10 -3 0 -8 5
-11 10 -3 6 -1 10 4 10 6 0 11 -4 11 -10z m50 6 c0 -3 -4 -8 -10 -11 -5 -3
-10 -1 -10 4 0 6 5 11 10 11 6 0 10 -2 10 -4z m-493 -21 c8 -23 -26 -58 -44
-44 -14 12 -18 41 -6 52 12 13 44 7 50 -8z m191 -2 c13 -26 4 -43 -24 -43 -26
0 -40 20 -30 45 8 21 43 19 54 -2z m197 -13 c0 -20 -5 -25 -25 -25 -28 0 -41
32 -18 46 23 15 43 5 43 -21z m70 -70 c9 -14 -4 -50 -18 -50 -7 0 -12 14 -12
30 0 29 17 41 30 20z m-558 -16 c8 -21 -19 -46 -40 -38 -17 6 -23 35 -10 47
12 13 44 7 50 -9z m190 -4 c4 -23 -12 -41 -30 -34 -17 6 -23 35 -10 48 11 11
38 2 40 -14z m198 10 c9 -15 -4 -50 -19 -50 -20 0 -37 25 -30 44 7 18 39 22
49 6z m102 -90 c-3 -19 -33 -49 -50 -50 -5 0 -7 10 -5 23 2 14 11 23 26 25 12
2 22 8 22 13 0 5 2 9 5 9 3 0 3 -9 2 -20z m1254 -23 c-16 -16 -26 0 -10 19 9
11 15 12 17 4 2 -6 -1 -17 -7 -23z m-1651 8 c15 -18 5 -35 -20 -35 -22 0 -34
15 -26 35 7 19 30 19 46 0z m198 -11 c4 -27 -23 -38 -43 -18 -12 13 -13 19 -4
30 17 20 43 13 47 -12z m1466 -22 c3 -5 -1 -9 -9 -9 -8 0 -12 4 -9 9 3 4 7 8
9 8 2 0 6 -4 9 -8z m-1764 -71 c0 -27 -19 -36 -37 -18 -18 18 -9 37 18 37 12
0 19 -7 19 -19z m195 -6 c0 -11 -7 -21 -16 -23 -18 -3 -33 23 -23 39 10 17 39
5 39 -16z m193 -3 c2 -14 -2 -22 -12 -22 -19 0 -29 17 -22 36 8 22 30 12 34
-14z m67 -2 c3 -5 1 -10 -4 -10 -6 0 -11 5 -11 10 0 6 2 10 4 10 3 0 8 -4 11
-10z m-360 -95 c0 -28 -29 -25 -33 3 -3 19 0 23 15 20 10 -2 18 -12 18 -23z
m201 14 c3 -6 0 -17 -7 -25 -18 -17 -44 -2 -36 20 7 18 33 21 43 5z m1564 -20
c0 -5 6 -9 14 -9 8 0 17 -7 20 -16 4 -11 -1 -10 -24 6 -34 24 -48 42 -26 34 9
-3 16 -10 16 -15z m-1473 -103 c-13 -14 -16 -14 -27 -1 -10 12 -10 18 0 31 12
13 15 13 28 0 13 -13 13 -16 -1 -30z m-387 14 c0 -11 -6 -20 -14 -20 -18 0
-29 16 -21 30 11 18 35 11 35 -10z m193 6 c7 -16 -1 -26 -20 -26 -7 0 -13 9
-13 20 0 23 25 27 33 6z m-98 -106 c0 -22 -29 -18 -33 3 -3 14 1 18 15 15 10
-2 18 -10 18 -18z m195 6 c0 -8 -5 -18 -11 -22 -14 -8 -33 11 -25 25 10 16 36
13 36 -3z"/>
<path d="M1010 1180 c0 -5 5 -10 10 -10 6 0 10 5 10 10 0 6 -4 10 -10 10 -5 0
-10 -4 -10 -10z"/>
<path d="M2620 1970 c0 -5 5 -10 10 -10 6 0 10 5 10 10 0 6 -4 10 -10 10 -5 0
-10 -4 -10 -10z"/>
<path d="M519 1936 c-19 -9 -24 -19 -24 -51 0 -38 2 -40 33 -43 41 -4 62 12
62 47 0 47 -31 67 -71 47z"/>
<path d="M112 1928 c-7 -7 -12 -26 -12 -44 0 -28 4 -33 30 -39 16 -3 37 -2 46
3 20 11 28 61 12 79 -13 16 -60 17 -76 1z"/>
<path d="M313 1933 c-14 -5 -18 -82 -5 -84 68 -12 82 -5 82 41 0 45 -31 62
-77 43z"/>
<path d="M694 1927 c-3 -9 -4 -30 -2 -49 3 -32 5 -33 43 -32 l40 1 0 44 c0 44
0 44 -38 47 -26 2 -39 -1 -43 -11z"/>
<path d="M893 1925 c-17 -19 -16 -60 1 -74 13 -11 75 -5 77 8 7 30 5 58 -3 69
-14 16 -60 15 -75 -3z"/>
<path d="M1092 1928 c-19 -19 -15 -78 6 -79 35 -2 67 3 73 13 10 15 2 60 -13
69 -19 13 -52 11 -66 -3z"/>
<path d="M1287 1927 c-26 -18 -20 -71 8 -74 26 -4 77 42 73 65 -4 22 -56 28
-81 9z"/>
<path d="M2712 1928 c5 -15 28 -23 28 -10 0 5 -7 13 -16 16 -10 4 -14 1 -12
-6z"/>
<path d="M2852 1928 c-16 -16 -15 -63 2 -77 8 -7 30 -11 48 -9 36 5 46 26 34
74 -5 19 -13 24 -39 24 -18 0 -38 -5 -45 -12z"/>
<path d="M3053 1933 c-7 -2 -13 -22 -13 -43 0 -44 19 -56 70 -45 25 5 30 12
30 35 0 47 -9 60 -44 59 -17 0 -37 -3 -43 -6z"/>
<path d="M3242 1928 c-16 -16 -15 -63 1 -75 6 -5 28 -9 47 -9 33 2 35 4 38 40
2 24 -2 42 -10 47 -19 13 -62 11 -76 -3z"/>
<path d="M3443 1933 c-17 -6 -17 -68 0 -81 13 -11 56 -10 75 2 16 9 15 59 0
74 -12 12 -52 15 -75 5z"/>
<path d="M3643 1932 c-12 -8 -16 -24 -14 -59 1 -20 6 -23 46 -23 l45 0 0 39
c0 26 -5 41 -16 45 -21 8 -46 7 -61 -2z"/>
<path d="M3834 1928 c-12 -19 -14 -61 -3 -74 8 -10 38 -11 82 -5 12 2 8 66 -5
79 -16 16 -65 16 -74 0z"/>
<path d="M786 1825 c-3 -9 -6 -32 -6 -51 0 -37 8 -40 69 -28 30 6 32 9 29 48
-3 40 -4 41 -44 44 -31 2 -43 -1 -48 -13z"/>
<path d="M1180 1796 c0 -34 4 -45 19 -49 22 -5 71 45 71 74 0 16 -7 19 -45 19
l-45 0 0 -44z"/>
<path d="M2393 1740 c0 -30 2 -43 4 -27 2 15 2 39 0 55 -2 15 -4 2 -4 -28z"/>
<path d="M2159 1753 c-13 -16 -12 -17 4 -4 9 7 17 15 17 17 0 8 -8 3 -21 -13z"/>
<path d="M2401 1649 c1 -19 5 -45 9 -59 6 -16 7 -6 3 30 -7 63 -13 80 -12 29z"/>
<path d="M2420 1553 c1 -4 44 -42 97 -83 52 -41 127 -104 164 -138 43 -40 69
-58 69 -48 0 9 -4 16 -8 16 -5 0 -24 14 -43 31 -47 43 -251 213 -266 223 -7 4
-13 4 -13 -1z"/>
<path d="M1928 1481 c-1 -5 -93 -57 -202 -116 -152 -81 -201 -103 -207 -93 -6
9 -9 6 -9 -9 0 -28 0 -28 52 1 38 21 193 104 331 176 26 14 47 31 47 37 0 15
-7 17 -12 4z"/>
<path d="M3163 1365 c-17 -19 -16 -30 1 -16 7 6 22 8 32 4 18 -6 18 -6 2 10
-20 20 -20 20 -35 2z"/>
<path d="M1981 1284 c0 -11 3 -14 6 -6 3 7 2 16 -1 19 -3 4 -6 -2 -5 -13z"/>
<path d="M2362 1280 c0 -14 2 -19 5 -12 2 6 2 18 0 25 -3 6 -5 1 -5 -13z"/>
<path d="M3120 1280 c0 -5 5 -10 10 -10 6 0 10 5 10 10 0 6 -4 10 -10 10 -5 0
-10 -4 -10 -10z"/>
<path d="M2752 1250 c-1 -8 5 -44 13 -80 7 -36 13 -51 13 -35 0 31 -25 142
-26 115z"/>
<path d="M1522 1210 c0 -14 2 -19 5 -12 2 6 2 18 0 25 -3 6 -5 1 -5 -13z"/>
<path d="M1992 1165 c0 -16 2 -22 5 -12 2 9 2 23 0 30 -3 6 -5 -1 -5 -18z"/>
<path d="M1532 1150 c0 -19 2 -27 5 -17 2 9 2 25 0 35 -3 9 -5 1 -5 -18z"/>
<path d="M2782 1000 c0 -19 2 -27 5 -17 2 9 2 25 0 35 -3 9 -5 1 -5 -18z"/>
<path d="M2356 620 c2 -14 3 -33 3 -42 1 -19 9 -22 28 -10 19 12 5 78 -16 78
-11 0 -16 -8 -15 -26z"/>
<path d="M1810 601 c-14 -27 -13 -28 15 -33 28 -6 34 6 8 16 -14 6 -14 8 3 21
17 13 17 14 2 15 -10 0 -22 -9 -28 -19z"/>
<path d="M2172 608 c-17 -17 -15 -28 4 -28 10 0 14 -6 11 -14 -4 -10 -1 -13 9
-9 7 3 14 9 14 14 0 5 8 9 18 10 10 0 12 3 5 6 -7 2 -13 11 -13 19 0 17 -31
19 -48 2z"/>
<path d="M2626 578 c-9 -12 -16 -28 -16 -36 0 -7 -7 -23 -15 -36 -14 -21 -14
-24 0 -29 8 -4 15 -2 15 2 0 12 43 1 52 -13 5 -7 8 -7 8 2 0 8 -13 19 -30 25
-16 6 -30 15 -30 19 0 12 24 10 37 -3 16 -16 46 32 36 57 -14 38 -36 43 -57
12z"/>
<path d="M1888 570 c-18 -21 -13 -26 11 -11 7 5 12 14 10 20 -3 7 -11 3 -21
-9z"/>
<path d="M2410 581 c0 -5 5 -13 10 -16 6 -3 10 -2 10 4 0 5 -4 13 -10 16 -5 3
-10 2 -10 -4z"/>
<path d="M2570 580 c0 -5 5 -10 11 -10 5 0 7 5 4 10 -3 6 -8 10 -11 10 -2 0
-4 -4 -4 -10z"/>
<path d="M1760 555 c0 -16 16 -20 24 -6 3 5 -1 11 -9 15 -9 3 -15 0 -15 -9z"/>
<path d="M2496 563 c-16 -4 -11 -8 19 -19 40 -13 55 -11 55 9 0 7 -4 6 -10 -3
-8 -13 -10 -12 -10 3 0 17 -15 20 -54 10z"/>
<path d="M1800 524 c0 -8 5 -12 10 -9 6 3 10 10 10 16 0 5 -4 9 -10 9 -5 0
-10 -7 -10 -16z"/>
<path d="M1915 530 c3 -5 8 -10 11 -10 2 0 4 5 4 10 0 6 -5 10 -11 10 -5 0 -7
-4 -4 -10z"/>
<path d="M2467 528 c-26 -14 -21 -56 8 -70 29 -13 40 -6 50 33 5 20 2 27 -18
36 -15 7 -29 8 -40 1z"/>
<path d="M1875 519 c-4 -6 -5 -13 -2 -16 7 -7 27 6 27 18 0 12 -17 12 -25 -2z"/>
<path d="M1948 507 c-32 -12 -37 -27 -10 -27 10 0 23 -5 29 -11 16 -16 33 -2
33 27 0 26 -10 28 -52 11z"/>
<path d="M2130 475 c0 -10 7 -15 18 -13 21 4 19 22 -2 26 -10 2 -16 -3 -16
-13z"/>
<path d="M2214 425 c-16 -24 -16 -27 2 -40 24 -18 24 -18 54 5 21 16 22 20 7
20 -10 0 -16 4 -12 9 3 6 -3 15 -14 21 -17 9 -23 6 -37 -15z"/>
<path d="M1920 389 c0 -5 5 -7 10 -4 6 3 10 8 10 11 0 2 -4 4 -10 4 -5 0 -10
-5 -10 -11z"/>
<path d="M2405 390 c3 -5 8 -10 11 -10 2 0 4 5 4 10 0 6 -5 10 -11 10 -5 0 -7
-4 -4 -10z"/>
<path d="M1874 376 c-8 -22 3 -33 18 -18 9 9 9 15 0 24 -9 9 -13 7 -18 -6z"/>
<path d="M1970 375 c0 -8 9 -15 19 -15 26 0 35 16 15 24 -25 10 -34 7 -34 -9z"/>
<path d="M2037 370 c-14 -17 -15 -24 -5 -40 7 -11 23 -20 36 -20 13 0 20 4 17
10 -3 6 -1 10 4 10 17 0 13 32 -6 46 -24 18 -26 17 -46 -6z"/>
<path d="M2362 363 c2 -10 10 -18 18 -18 22 0 18 29 -3 33 -14 3 -18 -1 -15
-15z"/>
<path d="M2155 330 c-8 -13 3 -30 20 -30 14 0 27 24 18 34 -10 9 -31 7 -38 -4z"/>
<path d="M2490 289 c0 -5 5 -7 10 -4 6 3 10 8 10 11 0 2 -4 4 -10 4 -5 0 -10
-5 -10 -11z"/>
<path d="M2580 290 c0 -6 -4 -8 -10 -5 -5 3 -10 -4 -10 -16 0 -18 2 -19 15 -9
10 9 15 9 15 1 0 -6 -5 -11 -11 -11 -5 0 -9 -8 -8 -17 1 -10 0 -20 -1 -23 -1
-3 -3 -21 -6 -40 -3 -24 -1 -30 5 -21 8 13 12 13 28 1 17 -13 17 -13 1 4 -14
17 -15 22 -3 40 17 26 15 98 -2 104 -7 2 -13 -1 -13 -8z"/>
<path d="M2275 280 c3 -5 11 -10 16 -10 6 0 7 5 4 10 -3 6 -11 10 -16 10 -6 0
-7 -4 -4 -10z"/>
<path d="M2206 272 c-9 -14 12 -35 28 -29 23 9 20 37 -3 37 -11 0 -22 -4 -25
-8z"/>
<path d="M2318 252 c-4 -12 0 -23 8 -26 20 -8 25 8 10 29 -12 17 -13 17 -18
-3z"/>
<path d="M2496 243 c-4 -9 5 -13 29 -13 43 0 46 16 5 22 -18 3 -31 0 -34 -9z"/>
<path d="M2255 229 c-10 -15 3 -25 16 -12 7 7 7 13 1 17 -6 3 -14 1 -17 -5z"/>
<path d="M2015 210 c-3 -6 1 -7 9 -4 18 7 21 14 7 14 -6 0 -13 -4 -16 -10z"/>
<path d="M2505 210 c-3 -5 1 -10 9 -10 9 0 16 5 16 10 0 6 -4 10 -9 10 -6 0
-13 -4 -16 -10z"/>
<path d="M2370 200 c0 -5 5 -10 10 -10 6 0 10 5 10 10 0 6 -4 10 -10 10 -5 0
-10 -4 -10 -10z"/>
<path d="M2416 181 c-18 -20 -8 -35 17 -25 9 3 22 -4 32 -18 l16 -23 -4 32
c-9 57 -30 69 -61 34z"/>
<path d="M2615 190 c3 -5 10 -10 16 -10 5 0 9 5 9 10 0 6 -7 10 -16 10 -8 0
-12 -4 -9 -10z"/>
<path d="M2524 175 c-8 -20 4 -65 16 -65 15 0 12 40 -2 40 -7 0 -5 5 5 11 9 5
17 14 17 19 0 16 -30 11 -36 -5z"/>
<path d="M1770 150 c0 -5 5 -10 10 -10 6 0 10 5 10 10 0 6 -4 10 -10 10 -5 0
-10 -4 -10 -10z"/>
<path d="M1830 150 c0 -5 7 -10 15 -10 8 0 15 5 15 10 0 6 -7 10 -15 10 -8 0
-15 -4 -15 -10z"/>
<path d="M2250 140 c0 -5 6 -10 14 -10 8 0 18 5 21 10 3 6 -3 10 -14 10 -12 0
-21 -4 -21 -10z"/>
<path d="M1806 125 c4 -8 8 -15 10 -15 2 0 4 7 4 15 0 8 -4 15 -10 15 -5 0 -7
-7 -4 -15z"/>
<path d="M1830 123 c0 -4 5 -15 10 -23 8 -13 10 -13 10 2 0 9 -4 20 -10 23 -5
3 -10 3 -10 -2z"/>
<path d="M2180 20 c0 -6 4 -9 9 -6 5 4 12 1 14 -4 3 -6 4 -5 3 2 -3 15 -26 23
-26 8z"/>
</g>
</svg>
